<?xml version="1.0" encoding="iso-8859-1"?>
<!-- Generator: Adobe Illustrator 19.0.0, SVG Export Plug-In . SVG Version: 6.00 Build 0)  -->
<svg version="1.1" id="Capa_1" xmlns="http://www.w3.org/2000/svg" xmlns:xlink="http://www.w3.org/1999/xlink" x="0px" y="0px"
	 viewBox="0 0 512 512" style="enable-background:new 0 0 512 512;" xml:space="preserve">
<g>
	<g>
		<path d="M481.257,131.218L266.241,2.825c-6.307-3.767-14.171-3.767-20.479,0L30.746,131.218
			c-5.912,3.529-9.745,10.067-9.745,17.176v215.221c0,7.043,3.701,13.567,9.745,17.176l215.015,128.393
			c6.106,3.647,14.013,3.861,20.479,0l215.016-128.393c6.043-3.609,9.744-10.132,9.744-17.176V148.394
			C491.001,141.282,487.168,134.747,481.257,131.218z M60.969,183.617l175.047,104.527v168.64L60.969,352.259V183.617z
			 M256.001,253.497L79.988,148.394L256.001,43.291l176.014,105.103L256.001,253.497z M451.033,352.259L275.985,456.785V288.144
			l175.048-104.527V352.259z"/>
	</g>
</g>
<g>
</g>
<g>
</g>
<g>
</g>
<g>
</g>
<g>
</g>
<g>
</g>
<g>
</g>
<g>
</g>
<g>
</g>
<g>
</g>
<g>
</g>
<g>
</g>
<g>
</g>
<g>
</g>
<g>
</g>
</svg>
